<svg xmlns="http://www.w3.org/2000/svg" xmlns:xlink="http://www.w3.org/1999/xlink" version="1.1" enable-background="new 0 0 26 26" width="232" height="215" style=""><rect id="backgroundrect" width="100%" height="100%" x="0" y="0" fill="none" stroke="none" class="" style=""/>
  
<g class="currentLayer" style=""><title>Layer 1</title><g id="svg_1" class="" fill="#222123" fill-opacity="1">
    <path d="m223.4889961629027,143.03295261672525 h-17.87912002611006 c-5.363736007833019,0 -8.939560013055031,3.575824005222012 -8.939560013055031,8.939560013055031 v22.348900032637573 c0,2.6818680039165095 -1.7879120026110065,4.469780006527515 -4.469780006527515,4.469780006527515 h-151.9725202219355 c-2.6818680039165095,0 -4.469780006527515,-1.7879120026110065 -4.469780006527515,-4.469780006527515 v-22.348900032637573 c0,-5.363736007833019 -3.575824005222012,-8.939560013055031 -8.939560013055031,-8.939560013055031 h-17.87912002611006 c-5.363736007833019,0 -8.939560013055031,3.575824005222012 -8.939560013055031,8.939560013055031 v53.637360078330175 c0,5.363736007833019 3.575824005222012,8.939560013055031 8.939560013055031,8.939560013055031 h214.5494403133207 c5.363736007833019,0 8.939560013055031,-3.575824005222012 8.939560013055031,-8.939560013055031 v-53.637360078330175 c0,-5.363736007833019 -3.575824005222012,-8.939560013055031 -8.939560013055031,-8.939560013055031 z" id="svg_2" fill="#222123" fill-opacity="1"/>
    <path d="m109.95658399710405,140.35108461280853 c1.7879120026110065,1.7879120026110065 4.469780006527515,2.6818680039165095 6.2576920091385215,2.6818680039165095 s4.469780006527515,-0.893956001305504 6.2576920091385215,-2.6818680039165095 l53.637360078330175,-53.637360078330175 c1.7879120026110065,-1.7879120026110065 2.6818680039165095,-3.575824005222012 2.6818680039165095,-6.2576920091385215 s-0.893956001305504,-4.469780006527515 -2.6818680039165095,-6.2576920091385215 l-12.51538401827704,-12.51538401827704 c-1.7879120026110065,-1.7879120026110065 -3.575824005222012,-2.6818680039165095 -6.2576920091385215,-2.6818680039165095 c-2.6818680039165095,0 -4.469780006527515,0.893956001305504 -6.2576920091385215,2.6818680039165095 l-8.939560013055031,8.939560013055031 c-2.6818680039165095,2.6818680039165095 -8.045604011749527,0.893956001305504 -8.045604011749527,-3.575824005222012 v-58.10714008485769 c0,-5.363736007833019 -3.575824005222012,-8.939560013055031 -8.939560013055031,-8.939560013055031 h-17.87912002611006 c-5.363736007833019,0 -8.939560013055031,3.575824005222012 -8.939560013055031,8.939560013055031 v59.00109608616319 c0,3.575824005222012 -4.469780006527515,6.2576920091385215 -8.045604011749527,3.575824005222012 l-8.939560013055031,-8.939560013055031 c-1.7879120026110065,-1.7879120026110065 -3.575824005222012,-2.6818680039165095 -6.2576920091385215,-2.6818680039165095 c-2.6818680039165095,0 -4.469780006527515,0.893956001305504 -6.2576920091385215,2.6818680039165095 l-12.51538401827704,12.51538401827704 c-1.7879120026110065,1.7879120026110065 -2.6818680039165095,3.575824005222012 -2.6818680039165095,6.2576920091385215 s0.893956001305504,4.469780006527515 2.6818680039165095,6.2576920091385215 l53.637360078330175,52.74340407702468 z" id="svg_3" fill="#222123" fill-opacity="1"/>
  </g></g></svg>